<?xml version="1.0" encoding="utf-8"?>
<!-- Generator: Adobe Illustrator 16.0.4, SVG Export Plug-In . SVG Version: 6.00 Build 0)  -->
<!DOCTYPE svg PUBLIC "-//W3C//DTD SVG 1.1//EN" "http://www.w3.org/Graphics/SVG/1.1/DTD/svg11.dtd">
<svg version="1.1" id="Layer_1" xmlns="http://www.w3.org/2000/svg" xmlns:xlink="http://www.w3.org/1999/xlink" x="0px" y="0px"
	 width="600px" height="600px" viewBox="0 0 600 600" enable-background="new 0 0 600 600" xml:space="preserve">
<g>
	<path fill="#FFFFFF" d="M571.762,112.868c-9.651-23.47-24.673-42.54-43.44-55.15c-19.527-13.108-45.112-20.037-73.991-20.037
		c-23.694,0-48.29,4.787-69.255,13.477c-36.62,15.167-67.149,42.301-85.261,75.406c-18.229-33.472-48.69-60.765-85.051-75.827
		c-21.44-8.886-46.409-13.779-70.309-13.779c-28.445,0-53.63,6.815-72.835,19.709c-36.448,24.486-58.046,74.698-55.022,127.922
		c2.547,44.886,15.505,89.349,39.613,135.929l1.564,3.021c0,0,2.406,4.978,5.295,10.135c2.642,4.715,5.043,8.876,5.043,8.876
		l5.835,8.704c27.667,41.27,61.123,78.332,95.843,115.813c33.05,35.667,79.529,69.853,127.521,93.789l2.496,1.244l2.496-1.244
		c49.646-24.761,95.002-57.84,127.714-93.144c33.452-36.106,68.227-75.204,95.928-116.455l5.847-8.708c0,0,4.021-6.256,6.606-11.357
		c2.602-5.133,3.752-7.653,3.752-7.653l1.564-3.018c24.159-46.592,37.143-91.067,39.69-135.966
		C584.818,159.617,580.792,134.828,571.762,112.868z M501.473,367c-0.007,0-0.014-0.232-0.021-0.224
		c-1.285,1.735-2.586,3.339-3.892,5.065c-0.313,0.415-0.624,0.769-0.938,1.183c-1.237,1.628-2.485,3.22-3.739,4.842
		c-0.384,0.495-0.767,0.976-1.151,1.472c-1.236,1.589-2.479,3.165-3.729,4.747c-0.405,0.512-0.811,1.02-1.217,1.531
		c-1.256,1.58-2.517,3.155-3.786,4.728c-0.386,0.479-0.774,0.955-1.162,1.433c-1.308,1.614-2.618,3.226-3.939,4.831
		c-0.282,0.342-0.565,0.683-0.848,1.024c-5.984,7.254-12.087,14.426-18.257,21.508c-0.453,0.521-0.904,1.043-1.358,1.562
		c-1.155,1.321-2.313,2.636-3.472,3.951c-0.672,0.762-1.344,1.525-2.017,2.285c-1.055,1.192-2.111,2.38-3.17,3.566
		c-0.788,0.886-1.577,1.771-2.366,2.653c-0.984,1.099-1.968,2.193-2.952,3.288c-0.888,0.986-1.775,1.969-2.663,2.95
		c-0.901,0.996-1.801,1.992-2.703,2.983c-1.006,1.108-2.013,2.212-3.02,3.315c-0.795,0.872-1.59,1.744-2.384,2.612
		c-1.201,1.312-2.4,2.616-3.6,3.921c-0.61,0.663-1.22,1.328-1.829,1.989c-1.818,1.973-3.634,3.938-5.446,5.895
		c-31.269,33.747-74.516,65.454-122.005,89.483c-45.943-23.288-90.218-55.896-121.815-89.994
		C146.064,425.132,115.227,391,89.202,354h9.403h41.616l49.641,40.077l37.973-113.342L293,526.407v-0.017l5.201,18.755l7.566-24.132
		l0,0l56.104-181.247l41.575,48.322L458.8,354h51.886c-2.998,4-6.078,8-9.215,13H501.473z M572.24,183.744
		C569.839,226.071,557.763,268,535.338,312h-10.61h-78.893l-34.871,20.271l-67.619-79.989l-41.976,137.031l-68.051-254.351
		l-63.717,186.026L155.935,312H64.592c-6.674-13-12.409-25.918-17.264-38.759c-0.099-0.261-0.204-0.433-0.302-0.695
		c-0.721-1.919-1.406-3.79-2.086-5.705c-0.241-0.679-0.492-1.337-0.729-2.016c-0.599-1.722-1.17-3.43-1.737-5.148
		c-0.287-0.871-0.581-1.736-0.86-2.606c-0.513-1.601-1.004-3.197-1.489-4.796c-0.3-0.988-0.602-1.974-0.892-2.96
		c-0.444-1.514-0.87-3.026-1.289-4.538c-0.297-1.072-0.592-2.145-0.877-3.216c-0.383-1.443-0.753-2.886-1.114-4.328
		c-0.286-1.142-0.563-2.284-0.835-3.425c-0.328-1.382-0.648-2.765-0.956-4.146c-0.269-1.206-0.525-2.412-0.778-3.617
		c-0.277-1.324-0.551-2.647-0.81-3.97c-0.248-1.27-0.479-2.541-0.709-3.81c-0.229-1.264-0.46-2.528-0.672-3.792
		c-0.225-1.344-0.429-2.688-0.634-4.031c-0.183-1.193-0.372-2.387-0.538-3.581c-0.203-1.449-0.379-2.897-0.559-4.346
		c-0.135-1.092-0.282-2.184-0.404-3.276c-0.186-1.655-0.34-3.312-0.496-4.967c-0.083-0.889-0.183-1.777-0.257-2.666
		c-0.215-2.55-0.399-5.1-0.544-7.652C24.958,134.596,44.62,88.276,77.854,65.95c17.354-11.652,40.384-17.811,66.601-17.811
		c22.464,0,45.913,4.591,66.028,12.927c37.398,15.493,68.101,44.768,84.233,80.317l5.092,11.22l5.091-11.22
		c15.95-35.15,46.732-64.271,84.456-79.896c19.641-8.141,42.716-12.625,64.975-12.625c26.651,0,50.081,6.272,67.757,18.138
		c16.923,11.371,30.524,28.613,39.332,50.03C569.818,137.454,573.56,160.465,572.24,183.744z"/>
	<path fill="#BF3616" d="M561.419,117.121c-8.808-21.417-22.409-38.749-39.332-50.12c-17.676-11.866-41.105-18.138-67.757-18.138
		c-22.259,0-45.334,4.484-64.975,12.625c-37.724,15.625-68.506,44.745-84.456,79.896l-5.091,11.22l-5.092-11.22
		c-16.133-35.55-46.835-64.825-84.233-80.317c-20.115-8.336-43.564-12.927-66.028-12.927c-26.217,0-49.247,6.159-66.601,17.811
		C44.62,88.276,24.958,134.596,27.761,183.955c0.145,2.552,0.329,5.102,0.544,7.652c0.075,0.889,0.174,1.777,0.257,2.666
		c0.156,1.655,0.311,3.312,0.496,4.967c0.123,1.092,0.269,2.184,0.404,3.276c0.18,1.449,0.356,2.897,0.559,4.346
		c0.167,1.194,0.355,2.387,0.538,3.581c0.205,1.344,0.409,2.688,0.634,4.031c0.212,1.263,0.442,2.527,0.672,3.792
		c0.229,1.27,0.461,2.54,0.709,3.81c0.258,1.323,0.532,2.646,0.81,3.97c0.252,1.206,0.509,2.411,0.778,3.617
		c0.308,1.381,0.627,2.763,0.956,4.146c0.271,1.141,0.55,2.283,0.835,3.425c0.361,1.442,0.73,2.885,1.114,4.328
		c0.285,1.071,0.58,2.144,0.877,3.216c0.419,1.512,0.844,3.025,1.289,4.539c0.29,0.986,0.591,1.974,0.892,2.961
		c0.486,1.599,0.976,3.197,1.489,4.798c0.279,0.87,0.573,1.741,0.86,2.612c0.568,1.718,1.138,3.438,1.737,5.16
		c0.237,0.679,0.488,1.359,0.729,2.038c0.681,1.915,1.366,3.83,2.086,5.75c0.098,0.261,0.204,0.523,0.302,0.784
		c0.834,2.209,1.706,4.422,2.593,6.638c0.178,0.444,0.356,0.887,0.536,1.332c1.868,4.613,3.852,9.243,5.951,13.892
		c0.063,0.14,0.126,0.101,0.189,0.241C59.099,301.045,61.755,307,64.592,312h91.342l13.666,9l63.717-186.104l68.051,254.418
		l41.976-136.964l67.619,79.911L445.835,312h78.893h10.61c22.425-44,34.501-85.929,36.902-128.256
		C573.56,160.465,569.818,137.543,561.419,117.121z"/>
	<path fill="#BF3616" d="M510.686,354H458.8l-55.327,34.088l-41.549-48.256l-56.053,181.211l-7.67,24.11L293,526.383v-0.005
		L227.834,280.67l-38.078,113.408L140.22,354H98.604h-9.403c26.025,37,56.863,71.132,88.792,105.602
		c31.597,34.099,75.872,66.773,121.815,90.061c47.489-24.029,90.736-55.77,122.005-89.517c1.812-1.956,3.628-3.938,5.446-5.911
		c0.609-0.661,1.22-1.334,1.829-1.997c1.199-1.304,2.398-2.614,3.6-3.926c0.794-0.868,1.589-1.743,2.384-2.614
		c1.007-1.103,2.014-2.208,3.02-3.316c0.901-0.991,1.802-1.987,2.703-2.983c0.888-0.981,1.775-1.967,2.663-2.951
		c0.984-1.095,1.968-2.189,2.952-3.288c0.789-0.883,1.578-1.768,2.366-2.653c1.059-1.187,2.115-2.374,3.17-3.566
		c0.673-0.76,1.345-1.523,2.017-2.285c1.158-1.315,2.316-2.63,3.472-3.951c0.454-0.519,0.905-1.042,1.358-1.562
		c6.17-7.082,12.273-14.254,18.257-21.508c0.282-0.342,0.565-0.683,0.848-1.024c1.32-1.606,2.633-3.219,3.939-4.832
		c0.388-0.478,0.776-0.955,1.162-1.434c1.27-1.572,2.53-3.149,3.786-4.729c0.406-0.512,0.812-1.023,1.217-1.535
		c1.25-1.582,2.494-3.166,3.729-4.755c0.385-0.495,0.768-0.992,1.151-1.487c1.254-1.622,2.502-3.245,3.739-4.873
		c0.314-0.414,0.625-0.83,0.938-1.245c1.306-1.727,2.606-3.205,3.892-4.94c0.007-0.009,0.014,0.224,0.021,0.224h-0.002
		C504.607,362,507.688,358,510.686,354z"/>
</g>
</svg>
